<svg version="1.1" id="Layer_1" xmlns="http://www.w3.org/2000/svg" xmlns:xlink="http://www.w3.org/1999/xlink" x="0px" y="0px"
	 width="256" height="256" viewBox="0 0 256 256" fill="none" xml:space="preserve">
<path fill="#000000" opacity="1.000000" stroke="none" 
	d="
M267.000000,1.000004 
	C348.964539,1.000000 430.929077,1.000000 512.946777,1.000000 
	C512.946777,171.557404 512.946777,342.114807 512.946777,513.000000 
	C431.311615,513.000000 349.622772,513.000000 267.122955,512.777832 
	C266.871124,511.978882 267.430298,511.402191 268.334717,510.771759 
	C277.053833,506.020477 285.492950,501.434509 293.781372,496.590637 
	C300.627716,492.589508 307.295776,488.283386 314.402893,484.057098 
	C328.525055,476.036438 342.287109,468.071075 356.405823,460.050476 
	C362.132843,456.886383 367.523285,453.811646 372.867523,450.658600 
	C377.619751,447.854919 382.320801,444.964478 387.400177,442.053467 
	C390.346588,440.594482 392.990845,439.284119 395.517181,437.776154 
	C401.392609,434.268951 407.211151,430.666473 413.408264,427.045044 
	C433.372650,415.635193 453.071381,404.433777 472.537323,392.841492 
	C478.615723,389.221680 481.647583,383.224152 481.903900,375.537354 
	C481.918549,334.381378 481.875977,293.691467 481.892578,252.536072 
	C481.966644,214.045258 481.986877,176.019958 481.990204,137.994644 
	C481.990662,132.776291 479.798462,128.515961 476.031555,124.613136 
	C475.383820,123.525208 474.925262,122.553993 474.159607,122.094521 
	C465.151520,116.688667 456.136047,111.292877 447.046570,106.025414 
	C432.541992,97.619774 418.005402,89.268608 403.432892,80.981323 
	C395.019196,76.196503 386.508545,71.582176 377.889587,66.590820 
	C376.156860,65.585686 374.576111,64.880844 372.685364,64.111176 
	C371.954224,64.016380 371.533081,63.986408 370.950165,63.646172 
	C360.642853,57.143822 350.561829,50.842079 340.318695,44.815815 
	C336.442810,42.535526 332.192871,40.890968 327.950256,38.645893 
	C319.229309,33.542419 310.671600,28.749678 302.042206,23.607231 
	C301.695862,22.872879 301.506409,22.342041 301.134033,22.124882 
	C290.767090,16.079065 280.363129,10.096405 270.024475,4.002927 
	C268.838348,3.303854 267.999725,2.015266 267.000000,1.000004 
z"/>
<path fill="#000000" opacity="1.000000" stroke="none" 
	d="
M247.000000,513.000000 
	C165.035461,513.000000 83.070915,513.000000 1.106375,513.000000 
	C1.070912,512.868835 1.004372,512.737732 1.004368,512.606567 
	C0.999967,342.180298 1.000000,171.754044 1.000000,1.000000 
	C82.688385,1.000000 164.377213,1.000000 246.781494,1.312839 
	C245.873596,2.667461 244.274414,3.749443 242.622543,4.743877 
	C236.388000,8.497118 230.136337,12.221902 223.533157,15.995003 
	C214.103409,21.320023 205.031586,26.607382 195.601074,31.951710 
	C187.620956,36.375835 179.971100,40.694302 172.388367,45.127617 
	C167.504242,47.983166 162.718719,51.007347 157.530548,53.991486 
	C139.434021,64.313416 121.695930,74.599800 103.600143,84.942398 
	C88.665085,93.328590 74.045647,101.586205 59.532471,110.026566 
	C54.219337,113.116493 49.158287,116.639893 43.628132,119.983658 
	C37.213406,124.185333 32.268196,129.487625 32.131130,137.110107 
	C31.808208,155.068558 32.114883,173.038330 32.108952,191.468811 
	C32.089439,211.958328 32.127838,231.982544 32.108669,252.471878 
	C32.089745,271.293030 32.128391,289.649048 32.108833,308.470276 
	C32.030178,330.356384 32.110004,351.778137 31.922159,373.197540 
	C31.872208,378.893311 33.096642,383.883636 37.110123,388.427521 
	C38.700321,390.243256 39.899940,392.155609 41.625111,393.199036 
	C51.500198,399.171997 61.465199,404.999176 71.465271,410.762024 
	C90.892059,421.957336 110.365578,433.071564 129.813675,444.229889 
	C150.698746,456.212799 171.584091,468.195221 192.455811,480.201324 
	C210.317139,490.475708 228.164429,500.774567 245.985397,511.118683 
	C246.510635,511.423584 246.670029,512.358704 247.000000,513.000000 
z"/>
<path fill="#3F873F" opacity="1.000000" stroke="none" 
	d="
M247.463181,513.000000 
	C246.670029,512.358704 246.510635,511.423584 245.985397,511.118683 
	C228.164429,500.774567 210.317139,490.475708 192.455811,480.201324 
	C171.584091,468.195221 150.698746,456.212799 129.813675,444.229889 
	C110.365578,433.071564 90.892059,421.957336 71.465271,410.762024 
	C61.465199,404.999176 51.500198,399.171997 41.625111,393.199036 
	C39.899940,392.155609 38.700321,390.243256 37.273361,388.115997 
	C48.874340,367.337769 60.459930,347.175751 72.263649,326.758423 
	C80.327972,313.008423 88.174164,299.513763 96.236938,285.760895 
	C97.703537,283.545959 98.989220,281.610901 100.197472,279.628693 
	C105.808662,270.423126 111.398407,261.204498 117.214142,252.251801 
	C119.409752,255.964203 121.433762,259.389557 123.356819,262.870697 
	C136.986526,287.543121 150.595566,312.226959 164.337860,337.228271 
	C175.716293,358.003113 186.968048,378.456879 198.349579,399.227020 
	C208.667175,418.025085 218.854996,436.506805 229.175034,455.310791 
	C234.611862,465.383301 239.968582,475.105591 245.206070,484.891754 
	C250.202026,494.226562 255.073700,503.627899 260.000000,513.000000 
	C255.975449,513.000000 251.950912,513.000000 247.463181,513.000000 
z"/>
<path fill="#4C9942" opacity="1.000000" stroke="none" 
	d="
M266.600006,1.000004 
	C267.999725,2.015266 268.838348,3.303854 270.024475,4.002927 
	C280.363129,10.096405 290.767090,16.079065 301.134033,22.124882 
	C301.506409,22.342041 301.695862,22.872879 301.704224,23.592098 
	C300.061035,23.997240 298.684113,24.067808 296.445343,24.182550 
	C297.834686,26.364311 298.623657,27.783810 299.580261,29.079569 
	C341.276459,85.559433 382.959198,142.049347 424.805695,198.417694 
	C426.392700,200.555435 429.581787,201.503815 431.918243,203.347870 
	C427.197937,212.450745 422.583710,221.212173 417.625671,230.015152 
	C413.298462,231.046402 411.164948,228.632507 409.083130,225.806824 
	C392.293701,203.017990 375.466095,180.257248 358.605194,157.521240 
	C357.434021,155.941971 355.902710,154.629791 354.538879,153.193405 
	C354.150787,153.419556 353.762695,153.645691 353.374603,153.871826 
	C353.590515,155.441040 353.829987,157.007416 354.018005,158.579956 
	C354.687805,164.182236 355.906921,169.785858 355.914276,175.390289 
	C356.033783,266.310760 355.998138,357.231445 356.000824,448.152069 
	C356.000916,452.136627 356.032318,456.121155 356.049164,460.105713 
	C342.287109,468.071075 328.525055,476.036438 314.397247,483.581299 
	C314.020996,478.996338 314.001373,474.831909 314.001312,470.667480 
	C313.999634,348.565491 313.962463,226.463440 314.070618,104.361534 
	C314.079315,94.537987 311.815948,85.694122 306.604004,77.369186 
	C301.657898,69.468857 297.278412,61.216103 292.534760,53.186241 
	C284.407379,39.428509 276.190399,25.723730 267.900024,11.660329 
	C266.192688,7.882627 264.596344,4.441314 263.000000,1.000001 
	C264.066681,1.000000 265.133331,1.000000 266.600006,1.000004 
z"/>
<path fill="#59A846" opacity="1.000000" stroke="none" 
	d="
M262.533142,1.000001 
	C264.596344,4.441314 266.192688,7.882627 267.836792,12.006853 
	C267.922760,16.016499 267.994263,19.343231 267.994293,22.669964 
	C267.996552,185.388474 267.992676,348.106964 267.989471,510.825470 
	C267.430298,511.402191 266.871124,511.978882 266.655975,512.777832 
	C264.958344,513.000000 262.916656,513.000000 260.437500,513.000000 
	C255.073700,503.627899 250.202026,494.226562 245.206070,484.891754 
	C239.968582,475.105591 234.611862,465.383301 229.529373,455.220947 
	C234.359909,453.065521 232.937454,449.005188 232.939041,445.776123 
	C233.008194,305.143860 232.999054,164.511581 232.992386,23.879293 
	C232.992310,22.214600 232.983276,20.542442 232.833755,18.886833 
	C232.556961,15.821783 231.031158,14.328703 227.801468,15.133891 
	C226.509842,15.455901 225.195236,15.685617 223.891083,15.957342 
	C230.136337,12.221902 236.388000,8.497118 242.622543,4.743877 
	C244.274414,3.749443 245.873596,2.667461 247.248474,1.312839 
	C252.022095,1.000000 257.044189,1.000000 262.533142,1.000001 
z"/>
<path fill="#54A244" opacity="1.000000" stroke="none" 
	d="
M268.334717,510.771759 
	C267.992676,348.106964 267.996552,185.388474 267.994293,22.669964 
	C267.994263,19.343231 267.922760,16.016499 267.947815,12.343242 
	C276.190399,25.723730 284.407379,39.428509 292.534760,53.186241 
	C297.278412,61.216103 301.657898,69.468857 306.604004,77.369186 
	C311.815948,85.694122 314.079315,94.537987 314.070618,104.361534 
	C313.962463,226.463440 313.999634,348.565491 314.001312,470.667480 
	C314.001373,474.831909 314.020996,478.996338 314.037170,483.636597 
	C307.295776,488.283386 300.627716,492.589508 293.781372,496.590637 
	C285.492950,501.434509 277.053833,506.020477 268.334717,510.771759 
z"/>
<path fill="#479241" opacity="1.000000" stroke="none" 
	d="
M356.405823,460.050476 
	C356.032318,456.121155 356.000916,452.136627 356.000824,448.152069 
	C355.998138,357.231445 356.033783,266.310760 355.914276,175.390289 
	C355.906921,169.785858 354.687805,164.182236 354.018005,158.579956 
	C353.829987,157.007416 353.590515,155.441040 353.374603,153.871826 
	C353.762695,153.645691 354.150787,153.419556 354.538879,153.193405 
	C355.902710,154.629791 357.434021,155.941971 358.605194,157.521240 
	C375.466095,180.257248 392.293701,203.017990 409.083130,225.806824 
	C411.164948,228.632507 413.298462,231.046402 417.434937,230.297989 
	C414.391602,236.358994 411.195160,242.178680 407.689575,247.859879 
	C405.915894,246.187027 404.184998,244.828140 403.036987,243.085281 
	C399.654449,237.950241 396.489166,232.671494 393.268585,227.430725 
	C392.157104,225.622101 391.133118,223.759689 390.069183,221.921829 
	C389.060944,222.455917 388.052673,222.989990 387.044434,223.524078 
	C387.044434,296.386841 387.044434,369.249573 387.044434,442.112335 
	C382.320801,444.964478 377.619751,447.854919 372.867523,450.658600 
	C367.523285,453.811646 362.132843,456.886383 356.405823,460.050476 
z"/>
<path fill="#3F873F" opacity="1.000000" stroke="none" 
	d="
M481.846680,376.003448 
	C481.647583,383.224152 478.615723,389.221680 472.537323,392.841492 
	C453.071381,404.433777 433.372650,415.635193 413.285767,426.641388 
	C412.538635,422.989197 412.038208,419.683289 412.034973,416.376953 
	C411.985565,365.583832 412.000916,314.790710 412.282166,264.174683 
	C418.696930,273.212830 425.368256,281.754303 430.863129,290.995300 
	C446.857056,317.892975 462.362061,345.081207 478.136230,372.110291 
	C479.015411,373.616730 480.593750,374.715149 481.846680,376.003448 
z"/>
<path fill="#3F8B3D" opacity="1.000000" stroke="none" 
	d="
M481.903900,375.537354 
	C480.593750,374.715149 479.015411,373.616730 478.136230,372.110291 
	C462.362061,345.081207 446.857056,317.892975 430.863129,290.995300 
	C425.368256,281.754303 418.696930,273.212830 412.213745,263.803833 
	C410.575836,258.170013 409.287292,253.084198 407.998779,247.998383 
	C411.195160,242.178680 414.391602,236.358994 417.778748,230.256454 
	C422.583710,221.212173 427.197937,212.450745 432.117310,203.088898 
	C433.926025,200.624237 435.429565,198.759995 436.864410,197.262115 
	C433.282623,204.785080 429.981689,212.057068 426.175171,219.054016 
	C423.968628,223.110031 424.700897,225.503403 428.751434,227.386383 
	C435.998627,230.755402 443.199371,234.225525 450.394287,237.705582 
	C460.885712,242.780045 471.354797,247.900650 481.833405,253.001587 
	C481.875977,293.691467 481.918549,334.381378 481.903900,375.537354 
z"/>
<path fill="#438C40" opacity="1.000000" stroke="none" 
	d="
M407.689575,247.859879 
	C409.287292,253.084198 410.575836,258.170013 411.932800,263.626709 
	C412.000916,314.790710 411.985565,365.583832 412.034973,416.376953 
	C412.038208,419.683289 412.538635,422.989197 412.930267,426.698944 
	C407.211151,430.666473 401.392609,434.268951 395.517181,437.776154 
	C392.990845,439.284119 390.346588,440.594482 387.400177,442.053467 
	C387.044434,369.249573 387.044434,296.386841 387.044434,223.524078 
	C388.052673,222.989990 389.060944,222.455917 390.069183,221.921829 
	C391.133118,223.759689 392.157104,225.622101 393.268585,227.430725 
	C396.489166,232.671494 399.654449,237.950241 403.036987,243.085281 
	C404.184998,244.828140 405.915894,246.187027 407.689575,247.859879 
z"/>
<path fill="#3F883F" opacity="1.000000" stroke="none" 
	d="
M481.892578,252.536072 
	C471.354797,247.900650 460.885712,242.780045 450.394287,237.705582 
	C443.199371,234.225525 435.998627,230.755402 428.751434,227.386383 
	C424.700897,225.503403 423.968628,223.110031 426.175171,219.054016 
	C429.981689,212.057068 433.282623,204.785080 436.933746,196.923279 
	C437.699005,194.475647 438.326233,192.733246 439.112732,190.682434 
	C442.828430,183.911148 446.384857,177.448288 450.101257,170.677277 
	C454.585571,162.513657 458.828400,154.611832 463.257904,146.816055 
	C467.428955,139.475098 471.796783,132.245941 476.078003,124.967590 
	C479.798462,128.515961 481.990662,132.776291 481.990204,137.994644 
	C481.986877,176.019958 481.966644,214.045258 481.892578,252.536072 
z"/>
<path fill="#52A044" opacity="1.000000" stroke="none" 
	d="
M476.031525,124.613129 
	C471.796783,132.245941 467.428955,139.475098 463.257904,146.816055 
	C458.828400,154.611832 454.585571,162.513657 449.723145,170.655624 
	C446.679291,169.259644 443.499878,168.087952 441.774994,165.813278 
	C428.901642,148.836746 416.310486,131.646118 403.642181,114.514229 
	C392.854462,99.925484 382.038666,85.357071 371.353943,70.693207 
	C369.927795,68.735886 366.578827,66.343826 371.111908,63.956436 
	C371.533081,63.986408 371.954224,64.016380 372.851135,64.357986 
	C374.898407,65.410110 376.469971,66.150612 378.041534,66.891113 
	C386.508545,71.582176 395.019196,76.196503 403.432892,80.981323 
	C418.005402,89.268608 432.541992,97.619774 447.046570,106.025414 
	C456.136047,111.292877 465.151520,116.688667 474.159607,122.094521 
	C474.925262,122.553993 475.383820,123.525208 476.031525,124.613129 
z"/>
<path fill="#4F9D43" opacity="1.000000" stroke="none" 
	d="
M370.950165,63.646172 
	C366.578827,66.343826 369.927795,68.735886 371.353943,70.693207 
	C382.038666,85.357071 392.854462,99.925484 403.642181,114.514229 
	C416.310486,131.646118 428.901642,148.836746 441.774994,165.813278 
	C443.499878,168.087952 446.679291,169.259644 449.563232,170.963745 
	C446.384857,177.448288 442.828430,183.911148 438.756104,190.635666 
	C435.969055,189.113342 433.168396,187.723007 431.505829,185.486603 
	C404.907715,149.707596 378.448975,113.824974 351.972565,77.955566 
	C343.674133,66.713112 335.394043,55.456921 327.163971,44.164436 
	C325.768066,42.249123 323.278839,39.858814 328.113434,38.956627 
	C332.192871,40.890968 336.442810,42.535526 340.318695,44.815815 
	C350.561829,50.842079 360.642853,57.143822 370.950165,63.646172 
z"/>
<path fill="#4E9A43" opacity="1.000000" stroke="none" 
	d="
M327.950256,38.645893 
	C323.278839,39.858814 325.768066,42.249123 327.163971,44.164436 
	C335.394043,55.456921 343.674133,66.713112 351.972565,77.955566 
	C378.448975,113.824974 404.907715,149.707596 431.505829,185.486603 
	C433.168396,187.723007 435.969055,189.113342 438.596832,190.944092 
	C438.326233,192.733246 437.699005,194.475647 437.002441,196.556915 
	C435.429565,198.759995 433.926025,200.624237 432.223389,202.747452 
	C429.581787,201.503815 426.392700,200.555435 424.805695,198.417694 
	C382.959198,142.049347 341.276459,85.559433 299.580261,29.079569 
	C298.623657,27.783810 297.834686,26.364311 296.445343,24.182550 
	C298.684113,24.067808 300.061035,23.997240 301.775879,23.941803 
	C310.671600,28.749678 319.229309,33.542419 327.950256,38.645893 
z"/>
<path fill="#4F9D43" opacity="1.000000" stroke="none" 
	d="
M377.889587,66.590820 
	C376.469971,66.150612 374.898407,65.410110 373.161072,64.422806 
	C374.576111,64.880844 376.156860,65.585686 377.889587,66.590820 
z"/>
<path fill="#5DAE47" opacity="1.000000" stroke="none" 
	d="
M223.533157,15.995005 
	C225.195236,15.685617 226.509842,15.455901 227.801468,15.133891 
	C231.031158,14.328703 232.556961,15.821783 232.833755,18.886833 
	C232.983276,20.542442 232.992310,22.214600 232.992386,23.879293 
	C232.999054,164.511581 233.008194,305.143860 232.939041,445.776123 
	C232.937454,449.005188 234.359909,453.065521 229.397171,454.898682 
	C218.854996,436.506805 208.667175,418.025085 198.611877,399.011963 
	C199.496033,394.849884 200.900879,391.219910 200.904526,387.588470 
	C201.020020,272.934143 200.999420,158.279663 200.998596,43.625210 
	C200.998596,42.458698 200.908936,41.286465 200.994400,40.126720 
	C201.286819,36.158768 199.752853,33.345528 195.959763,31.894737 
	C205.031586,26.607382 214.103409,21.320023 223.533157,15.995005 
z"/>
<path fill="#61B348" opacity="1.000000" stroke="none" 
	d="
M195.601074,31.951708 
	C199.752853,33.345528 201.286819,36.158768 200.994400,40.126720 
	C200.908936,41.286465 200.998596,42.458698 200.998596,43.625210 
	C200.999420,158.279663 201.020020,272.934143 200.904526,387.588470 
	C200.900879,391.219910 199.496033,394.849884 198.482117,398.695618 
	C186.968048,378.456879 175.716293,358.003113 164.562225,336.951294 
	C165.105911,333.780640 165.939789,331.208344 165.941727,328.635376 
	C166.009003,239.611389 166.001770,150.587326 165.990753,61.563286 
	C165.989746,53.517773 165.732361,53.318466 157.889008,53.955948 
	C162.718719,51.007347 167.504242,47.983166 172.388367,45.127617 
	C179.971100,40.694302 187.620956,36.375835 195.601074,31.951708 
z"/>
<path fill="#65B949" opacity="1.000000" stroke="none" 
	d="
M157.530548,53.991486 
	C165.732361,53.318466 165.989746,53.517773 165.990753,61.563286 
	C166.001770,150.587326 166.009003,239.611389 165.941727,328.635376 
	C165.939789,331.208344 165.105911,333.780640 164.435547,336.630219 
	C150.595566,312.226959 136.986526,287.543121 123.356819,262.870697 
	C121.433762,259.389557 119.409752,255.964203 117.103775,251.926575 
	C115.846504,249.245392 114.917923,247.150681 114.201569,244.737503 
	C114.942055,241.354553 115.924400,238.290985 115.930626,235.225464 
	C116.027687,187.442352 115.999481,139.658997 115.994057,91.875694 
	C115.993881,90.378105 115.989174,88.876022 115.879646,87.383896 
	C115.677757,84.633476 114.631386,83.691254 111.606323,84.579926 
	C109.231766,85.277489 106.519875,84.826782 103.957848,84.886192 
	C121.695930,74.599800 139.434021,64.313416 157.530548,53.991486 
z"/>
<path fill="#69BD4B" opacity="1.000000" stroke="none" 
	d="
M103.600143,84.942398 
	C106.519875,84.826782 109.231766,85.277489 111.606323,84.579926 
	C114.631386,83.691254 115.677757,84.633476 115.879646,87.383896 
	C115.989174,88.876022 115.993881,90.378105 115.994057,91.875694 
	C115.999481,139.658997 116.027687,187.442352 115.930626,235.225464 
	C115.924400,238.290985 114.942055,241.354553 114.035126,244.506577 
	C113.402229,244.087631 113.147987,243.581116 113.023911,242.739075 
	C114.376572,238.022064 112.608383,235.629395 108.062469,234.703217 
	C107.552750,233.657089 107.198380,232.888351 106.856888,231.910217 
	C106.488373,231.161102 106.106987,230.621384 105.520912,229.823334 
	C103.545952,226.708466 101.775696,223.851929 99.892410,220.663544 
	C82.282860,188.315704 64.796661,156.294067 47.258804,124.300751 
	C46.397335,122.729210 45.084763,121.404953 43.982239,119.965546 
	C49.158287,116.639893 54.219337,113.116493 59.532471,110.026566 
	C74.045647,101.586205 88.665085,93.328590 103.600143,84.942398 
z"/>
<path fill="#3E9538" opacity="1.000000" stroke="none" 
	d="
M106.844017,232.119614 
	C107.198380,232.888351 107.552750,233.657089 108.188339,235.009109 
	C109.944298,238.086456 111.419022,240.580536 112.893738,243.074615 
	C113.147987,243.581116 113.402229,244.087631 113.822906,244.825058 
	C114.917923,247.150681 115.846504,249.245392 116.885460,251.665314 
	C111.398407,261.204498 105.808662,270.423126 100.197472,279.628693 
	C98.989220,281.610901 97.703537,283.545959 96.087883,285.447601 
	C93.692757,283.535309 91.946129,281.125427 89.584671,279.916962 
	C79.521278,274.767181 69.275337,269.974182 59.097363,265.048157 
	C50.119392,260.702942 41.143211,256.354034 32.166237,252.006760 
	C32.127838,231.982544 32.089439,211.958328 32.483501,191.508698 
	C35.412640,191.957169 38.023376,192.595901 40.387741,193.742615 
	C57.456390,202.020889 74.443985,210.466888 91.543053,218.681152 
	C94.136024,219.926804 97.173546,220.247070 100.005440,220.995392 
	C101.775696,223.851929 103.545952,226.708466 105.640656,230.089828 
	C106.258064,231.116302 106.551041,231.617966 106.844017,232.119614 
z"/>
<path fill="#3F913B" opacity="1.000000" stroke="none" 
	d="
M99.892410,220.663528 
	C97.173546,220.247070 94.136024,219.926804 91.543053,218.681152 
	C74.443985,210.466888 57.456390,202.020889 40.387741,193.742615 
	C38.023376,192.595901 35.412640,191.957169 32.541409,191.043396 
	C32.114883,173.038330 31.808208,155.068558 32.131130,137.110107 
	C32.268196,129.487625 37.213406,124.185333 43.628136,119.983658 
	C45.084763,121.404953 46.397335,122.729210 47.258804,124.300751 
	C64.796661,156.294067 82.282860,188.315704 99.892410,220.663528 
z"/>
<path fill="#3E9C35" opacity="1.000000" stroke="none" 
	d="
M32.108669,252.471878 
	C41.143211,256.354034 50.119392,260.702942 59.097363,265.048157 
	C69.275337,269.974182 79.521278,274.767181 89.584671,279.916962 
	C91.946129,281.125427 93.692757,283.535309 95.871300,285.705780 
	C88.174164,299.513763 80.327972,313.008423 71.940735,326.623413 
	C70.257713,326.084076 69.156639,325.337463 67.967453,324.778198 
	C56.042271,319.169525 44.102619,313.591614 32.167038,308.005066 
	C32.128391,289.649048 32.089745,271.293030 32.108669,252.471878 
z"/>
<path fill="#3DA430" opacity="1.000000" stroke="none" 
	d="
M32.108829,308.470276 
	C44.102619,313.591614 56.042271,319.169525 67.967453,324.778198 
	C69.156639,325.337463 70.257713,326.084076 71.722595,326.878723 
	C60.459930,347.175751 48.874340,367.337769 37.125511,387.811310 
	C33.096642,383.883636 31.872208,378.893311 31.922159,373.197540 
	C32.110004,351.778137 32.030178,330.356384 32.108829,308.470276 
z"/>
<path fill="#65B949" opacity="1.000000" stroke="none" 
	d="
M113.023918,242.739075 
	C111.419022,240.580536 109.944298,238.086456 108.343697,235.286499 
	C112.608383,235.629395 114.376572,238.022064 113.023918,242.739075 
z"/>
<path fill="#65B949" opacity="1.000000" stroke="none" 
	d="
M106.856888,231.910217 
	C106.551041,231.617966 106.258064,231.116302 105.845352,230.348145 
	C106.106987,230.621384 106.488373,231.161102 106.856888,231.910217 
z"/>
</svg>